<?xml version="1.0" encoding="UTF-8"?>
<svg xmlns="http://www.w3.org/2000/svg" version="1.1" viewBox="0 0 512 512">
  <defs>
    <style>
      .cls-1 {
        fill: #ff612b;
      }
    </style>
  </defs>
  <!-- Generator: Adobe Illustrator 28.6.0, SVG Export Plug-In . SVG Version: 1.2.0 Build 709)  -->
  <g>
    <g id="Layer_1">
      <g id="Layer_2">
        <g id="Layer_1-2">
          <path class="cls-1" d="M380.59,296.51v-86.84h27.55l.17,10.37c5.5-7.95,13.61-11.67,23-11.67,11.83,0,20.25,5.51,24.79,14.1,5.51-9.4,15.91-14.1,26.58-14.1,18.95,0,29.32,14.26,29.32,32.25v55.9h-28.03v-51.68c0-8.42-5.34-13.45-11.83-13.45s-11.82,5.06-11.82,13.45v51.68h-28.03v-51.68c0-8.42-5.35-13.45-11.83-13.45s-11.83,5.06-11.83,13.45v51.68h-28.03ZM371.19,263.45c0,22.36-17.83,35-40.5,35s-40.5-12.64-40.5-35v-53.79h28.2v52.98c0,7.61,5.02,12.47,12.29,12.47s12.29-4.86,12.29-12.47v-52.98h28.2v53.79ZM282.57,232.02v-22.36h-23.14v-22.2h-28.06v77.94c0,21.55,12.8,32.4,33.38,32.4,6,0,12.29-.64,17.82-2.89v-22.2c-3.44,1.14-7.04,1.73-10.66,1.76-7.46,0-12.48-3.41-12.48-11.35v-31.1h23.14ZM195.89,253.08c0,12.48-9.08,21.69-20.25,21.69s-20.41-9.23-20.41-21.69,9.08-21.55,20.41-21.55,20.25,9.24,20.25,21.55ZM155.22,330.21v-42.78c7.29,6.82,16.91,10.58,26.89,10.54,23.5,0,41.94-19.93,41.94-44.89s-18.47-44.72-41.94-44.72c-10.38-.05-20.34,4.03-27.7,11.35l-.16-10.04h-27.22v120.54h28.19ZM88.79,239.81c0,17.83-13.13,31.1-29.49,31.1s-29.48-13.28-29.48-31.1,13.12-31.1,29.48-31.1,29.49,13.26,29.49,31.08h0ZM59.3,181.79c-33.21,0-59.3,25.76-59.3,58s26.08,58,59.3,58,59.3-25.76,59.3-58-26.08-58-59.3-58Z"/>
        </g>
      </g>
    </g>
  </g>
</svg>