<svg width="145" height="60" viewBox="0 0 145 60" fill="none" xmlns="http://www.w3.org/2000/svg">
<g clip-path="url(#clip0_1166_759)">
<path d="M130.295 33.3H132.581V40.78C133.27 39.28 134.488 38.01 136.514 38.01C139.968 38.01 141.266 40.27 141.266 42.95V51.47H138.98V43.17C138.98 40.85 137.992 39.94 136.215 39.94C134.288 39.94 132.581 41.57 132.581 45V51.46H130.295V33.3ZM127.3 49.58C126.282 49.58 125.623 48.94 125.623 47.77V40.19H128.139V38.31H125.623V34.21L123.387 35.23V38.31H121.43V40.19H123.387V47.93C123.387 49.97 124.535 51.47 127.071 51.47H128.219V49.59H127.3V49.58ZM119.604 33.3H117.317V51.47H119.604V33.3ZM108.832 37.98C105.398 37.98 103.801 40.37 103.521 42.28H105.807C106.117 40.85 107.305 39.91 108.902 39.91C110.779 39.91 111.827 40.7 111.827 41.79C111.827 42.88 111.268 43.37 109.541 43.67C107.564 44.03 102.882 44.15 102.882 47.87C102.882 49.75 104.33 51.76 107.484 51.76C110.409 51.76 111.498 50.06 111.807 49.04H111.827V49.55C111.827 50.29 111.827 50.82 111.877 51.46H114.313C114.213 50.82 114.113 49.78 114.113 48.79V43.14C114.113 41.11 113.654 37.98 108.832 37.98ZM107.884 49.91C106.287 49.91 105.138 49.12 105.138 47.87C105.138 46.55 106.277 45.99 108.183 45.66C111.028 45.15 111.587 44.39 111.837 43.52L111.867 45.35C111.877 48.62 109.9 49.91 107.884 49.91ZM94.9361 51.77C97.8611 51.77 100.067 50.35 100.806 47.55H98.5698C98.1106 49.18 96.6432 49.87 94.8862 49.87C92.5502 49.87 90.8731 48.27 90.6934 45.52H101.006V45.11C100.956 41.73 99.5082 38.01 94.8862 38.01C91.1726 38.01 88.4872 40.86 88.4872 44.83C88.4773 48.95 91.0428 51.77 94.9361 51.77ZM90.7134 43.68C91.0229 41.42 92.5203 39.89 94.8762 39.89C97.2122 39.89 98.48 41.39 98.6896 43.68H90.7134ZM83.4759 33.3V41.34H74.741V33.3H72.3252V51.47H74.741V43.38H83.4759V51.47H85.8917V33.3H83.4759ZM78.804 24.46C80.7905 24.46 82.0783 23.62 82.0783 21.92C82.0783 20.06 80.4811 19.63 78.1651 18.94C75.1702 18.02 72.1954 17.01 72.1654 13.39C72.1155 9.9 75.32 8.25 78.6442 8.25C82.278 8.25 84.8934 9.96 85.2728 13.98H81.8687C81.5392 12 80.521 11.08 78.5644 11.08C76.8573 11.08 75.5196 11.77 75.5196 13.45C75.5196 14.95 76.9971 15.64 79.3331 16.33C82.4077 17.22 85.4325 18.06 85.4325 21.93C85.4325 25.65 82.1582 27.3 78.804 27.3C74.8408 27.3 71.7162 25.31 71.4067 21.01H74.8907C75.0205 23.23 76.6177 24.46 78.804 24.46ZM93.7781 27.26C89.815 27.26 87.0497 24.43 87.0497 20.24C87.0497 16.22 89.8948 13.32 93.8081 13.32C98.2005 13.32 100.207 16.65 100.237 20.55V21.19H90.1743C90.4239 23.3 91.8514 24.63 93.7581 24.63C95.1358 24.63 96.2938 24.15 96.7829 23H100.037C99.2387 25.6 96.9526 27.26 93.7781 27.26ZM97.0824 18.98C96.8827 17.27 95.8645 15.8 93.7581 15.8C91.8015 15.8 90.5038 17.07 90.2043 18.98H97.0824ZM105.648 8.68V26.85H102.373V8.68H105.648ZM114.512 27.26C110.549 27.26 107.784 24.43 107.784 20.24C107.784 16.22 110.629 13.32 114.542 13.32C118.935 13.32 120.941 16.65 120.971 20.55V21.19H110.909C111.158 23.3 112.586 24.63 114.492 24.63C115.87 24.63 117.028 24.15 117.517 23H120.771C119.973 25.6 117.687 27.26 114.512 27.26ZM117.817 18.98C117.617 17.27 116.599 15.8 114.492 15.8C112.536 15.8 111.238 17.07 110.938 18.98H117.817ZM129.786 27.23C125.923 27.23 122.778 24.56 122.778 20.26C122.778 15.96 125.933 13.34 129.786 13.34C132.99 13.34 135.396 15.15 135.885 18H132.781C132.351 16.65 131.283 15.91 129.756 15.91C127.44 15.91 126.022 17.82 126.022 20.29C126.022 22.73 127.44 24.67 129.756 24.67C131.233 24.67 132.421 23.96 132.861 22.46H135.935C135.376 25.53 132.94 27.23 129.786 27.23ZM143.832 24.3H144.67V26.9H143.093C139.839 26.95 138.93 25.02 138.93 22.37V16.19H136.824V13.7H138.93V10.71L142.105 9.31V13.69H144.75V16.18H142.105V21.91C142.105 23.44 142.434 24.3 143.832 24.3Z" fill="#110057"/>
<path d="M35.9877 47.3201C34.7898 48.5201 32.8432 48.5201 31.6452 47.3201L23.9984 39.6601C21.6026 37.2601 17.7093 37.2601 15.3035 39.6601L29.469 53.8501C32.0146 56.4001 35.9179 56.1001 38.164 53.8501L57.1412 34.8401C59.5371 32.4401 59.5371 28.5401 57.1412 26.1301L35.9877 47.3201Z" fill="url(#paint0_linear_1166_759)"/>
<path d="M29.469 53.8502C15.2935 39.6602 15.3035 39.6502 15.2935 39.6602C12.8976 42.0602 12.8976 45.9602 15.2935 48.3702L25.1165 58.2102C27.5124 60.6102 31.4057 60.6102 33.8115 58.2102L38.154 53.8502C35.9179 56.1002 32.0146 56.4002 29.469 53.8502Z" fill="url(#paint1_linear_1166_759)"/>
<path d="M48.4462 26.1301L29.469 45.1401L31.6452 47.3201C32.8432 48.5201 34.7898 48.5201 35.9877 47.3201L57.1412 26.1301C54.7354 23.7301 50.8421 23.7301 48.4462 26.1301Z" fill="url(#paint2_linear_1166_759)"/>
<path d="M22.9504 12.6899C24.1483 11.4899 26.0949 11.4899 27.2929 12.6899L34.9397 20.3499C37.3355 22.7499 41.2288 22.7499 43.6346 20.3499L29.4691 6.15991C26.9235 3.60991 23.0202 3.90991 20.7741 6.15991L1.7969 25.1799C-0.598966 27.5799 -0.598966 31.4799 1.7969 33.8899L22.9504 12.6899Z" fill="url(#paint3_linear_1166_759)"/>
<path d="M29.4692 6.16C43.6347 20.35 43.6247 20.36 43.6347 20.35C46.0306 17.95 46.0306 14.05 43.6347 11.64L33.8117 1.8C31.4158 -0.6 27.5225 -0.6 25.1167 1.8L20.7742 6.15C23.0203 3.92 26.9235 3.61 29.4692 6.16Z" fill="url(#paint4_linear_1166_759)"/>
<path d="M10.4819 33.88L29.4691 14.87L27.2928 12.69C26.0949 11.49 24.1483 11.49 22.9503 12.69L1.79688 33.88C4.19274 36.29 8.08601 36.29 10.4819 33.88Z" fill="url(#paint5_linear_1166_759)"/>
</g>
<defs>
<linearGradient id="paint0_linear_1166_759" x1="24.5541" y1="48.9404" x2="52.274" y2="21.2683" gradientUnits="userSpaceOnUse">
<stop offset="0.0222" stop-color="#DF36FF"/>
<stop offset="0.1437" stop-color="#C928F2"/>
<stop offset="0.3299" stop-color="#AE16E2"/>
<stop offset="0.5197" stop-color="#9B0AD6"/>
<stop offset="0.7134" stop-color="#9002CF"/>
<stop offset="0.917" stop-color="#8C00CD"/>
</linearGradient>
<linearGradient id="paint1_linear_1166_759" x1="35.0081" y1="59.4125" x2="15.0365" y2="39.4753" gradientUnits="userSpaceOnUse">
<stop offset="0.17" stop-color="#8C00CD"/>
<stop offset="0.3277" stop-color="#9B0AD6"/>
<stop offset="0.6292" stop-color="#C223ED"/>
<stop offset="0.83" stop-color="#DF36FF"/>
</linearGradient>
<linearGradient id="paint2_linear_1166_759" x1="55.673" y1="23.2536" x2="24.722" y2="54.1512" gradientUnits="userSpaceOnUse">
<stop offset="0.1344" stop-color="#8C00CD"/>
<stop offset="0.1841" stop-color="#990BD8"/>
<stop offset="0.3057" stop-color="#B521ED"/>
<stop offset="0.4126" stop-color="#C62EFA"/>
<stop offset="0.4928" stop-color="#CC33FF"/>
<stop offset="0.5588" stop-color="#C52EFA"/>
<stop offset="0.6524" stop-color="#B31FEB"/>
<stop offset="0.7619" stop-color="#9507D4"/>
<stop offset="0.7887" stop-color="#8C00CD"/>
</linearGradient>
<linearGradient id="paint3_linear_1166_759" x1="6.7262" y1="38.8054" x2="34.4461" y2="11.1333" gradientUnits="userSpaceOnUse">
<stop offset="0.35" stop-color="#FF6D66"/>
<stop offset="0.4518" stop-color="#FF6764"/>
<stop offset="0.5967" stop-color="#FF545E"/>
<stop offset="0.7672" stop-color="#FF3555"/>
<stop offset="0.956" stop-color="#FF0B47"/>
<stop offset="1" stop-color="#FF0044"/>
</linearGradient>
<linearGradient id="paint4_linear_1166_759" x1="44.8524" y1="21.5576" x2="24.8808" y2="1.62041" gradientUnits="userSpaceOnUse">
<stop offset="0.17" stop-color="#FF0044"/>
<stop offset="0.2421" stop-color="#FF0F4A"/>
<stop offset="0.4873" stop-color="#FF3F5D"/>
<stop offset="0.7042" stop-color="#FF616B"/>
<stop offset="0.8825" stop-color="#FF7674"/>
<stop offset="1" stop-color="#FF7D77"/>
</linearGradient>
<linearGradient id="paint5_linear_1166_759" x1="28.0226" y1="11.9864" x2="-2.92839" y2="42.884" gradientUnits="userSpaceOnUse">
<stop stop-color="#B70044"/>
<stop offset="0.3295" stop-color="#FF0044"/>
<stop offset="0.3526" stop-color="#FF124A"/>
<stop offset="0.3957" stop-color="#FF2E52"/>
<stop offset="0.4443" stop-color="#FF465A"/>
<stop offset="0.5" stop-color="#FF575F"/>
<stop offset="0.567" stop-color="#FF6463"/>
<stop offset="0.6568" stop-color="#FF6B65"/>
<stop offset="0.8651" stop-color="#FF6D66"/>
</linearGradient>
<clipPath id="clip0_1166_759">
<rect width="144.75" height="60" fill="white"/>
</clipPath>
</defs>
</svg>
